<svg xmlns="http://www.w3.org/2000/svg" width="194" height="96"><path fill="#e89b1f" d="M49.252 2.339v-2.3A47.4 47.4 0 00.528 40.419a48.11 48.11 0 00.358 16.276l2.252-.358 27.076-4.248a23.05 23.05 0 01-.563-3.276 17.811 17.811 0 0116.372-19.142h.005a22.454 22.454 0 013.225.051z"/><path fill="#007cb4" d="M82.316 86.228a2.97 2.97 0 00-3.173 3.225v2.764a3.174 3.174 0 106.347-.051v-2.765a2.905 2.905 0 00-3.174-3.173zm1.843 5.988c0 1.126-.461 2.047-1.791 2.047-1.331 0-1.843-.819-1.843-2.047v-2.815c0-1.177.461-2.1 1.791-2.1s1.843.87 1.843 2zm-9.213-3.685l-1.382-.665c-1.126-.512-1.736-1.075-1.736-1.995a1.933 1.933 0 012-1.791 3.275 3.275 0 012.5 1.175l1.024-.972a4.072 4.072 0 00-3.429-1.484 3.272 3.272 0 00-3.532 3.272c0 1.791.819 2.406 2.252 3.071l1.638.768c.921.461 1.843.972 1.843 2.2s-.819 1.945-2.2 1.945a4.145 4.145 0 01-3.225-1.382l-.971 1.028a4.965 4.965 0 003.941 1.689c2.252 0 3.941-1.382 3.941-3.48s-1.026-2.611-2.664-3.379zm-11.772-.614v-1.484h-1.331v8.752h1.385v-5.477a2.047 2.047 0 011.936-2.153 2.077 2.077 0 01.265 0h.768V86.33h-.614a2.434 2.434 0 00-2.409 1.587zm-.307-42.584H60.82v1.438c0 2.252-1.587 3.839-4.4 3.839s-4.811-1.382-4.811-4.709v-9.167a4.341 4.341 0 014.709-4.658c3.071 0 4.5 1.74 4.5 4.043v1.228h2.047v-1.688c0-3.173-2.61-5.477-6.449-5.477s-7.063 2.559-7.063 6.449v9.52c0 4.248 2.969 6.347 7.063 6.347 3.839 0 6.449-2.15 6.449-5.579zm8.292 7.166c3.122 0 5.477-1.843 5.477-5.63v-4.965c0-3.634-2.3-5.528-5.579-5.528s-5.477 2-5.477 5.579v5.016c0 3.634 2.252 5.528 5.579 5.528zm-3.431-5.579v-5.016c0-2.1.921-3.89 3.327-3.89s3.429 1.689 3.429 3.736v5.169c0 2.15-.819 3.839-3.327 3.839-2.455 0-3.429-1.487-3.429-3.838zm87.574-10.185h-2.15V52.14h2.15zm8.752 40.178h2.15V61.507h-2.15zm-8.752-46.064h-2.15v3.276h2.15zm-14.074 11.362a4.144 4.144 0 013.788-4.146c1.843 0 2.662.768 2.662 2.815v11.26h2.15V40.317a3.788 3.788 0 00-3.629-3.94h-.261a5.221 5.221 0 00-4.811 2.969v-2.61h-2V52.14h2.1zm19.142 7.166c0 2.457 1.791 3.02 3.429 3.02a8.753 8.753 0 002.559-.461v-1.74a7.305 7.305 0 01-1.843.307c-1.382 0-2-.563-2-1.791V38.471h3.941v-1.686h-3.941v-4.452h-2.15v4.453h-2.508v1.685h2.508zm5.835 6.244h-2.15v3.225h2.15zm-37.261-3.122a5.118 5.118 0 004.709-2.969h.051l.1 2.61h1.894V36.734h-2.15v9.827a4.089 4.089 0 01-3.839 4.2c-2 0-2.61-.768-2.61-2.815V36.734h-2.15v11.823a3.775 3.775 0 003.995 3.942zM49.406 85.051v1.433h-1.278v1.126h1.28v7.575h1.38V87.61h1.689v-1.126h-1.689v-1.433c0-.819.409-1.075 1.024-1.075h.87v-1.075l-1.075-.154a2.073 2.073 0 00-2.201 2.304zm33.522-27.844v-1.893H71.21v21.6h2.252V66.727h7.524v-1.893h-7.524v-7.627zm-1.126-5.067v-9.929a4.144 4.144 0 013.788-4.146c1.843 0 2.661.717 2.661 2.661V52.14h2.15V42.057a4.064 4.064 0 013.736-3.992c1.74 0 2.713.717 2.713 2.815v11.26h2.1V40.266a3.686 3.686 0 00-3.839-3.89 5.067 5.067 0 00-4.811 3.02h-.051a3.685 3.685 0 00-3.736-3.02 5.016 5.016 0 00-4.811 3.02h-.051v-2.662h-2V52.14zm22.674-9.929a4.144 4.144 0 013.788-4.146c1.843 0 2.661.717 2.713 2.661V52.14h2.1V42.057a4.044 4.044 0 013.788-3.992c1.638 0 2.662.717 2.662 2.815v11.26h2.1V40.266a3.686 3.686 0 00-3.839-3.89 5.17 5.17 0 00-4.811 3.02 3.788 3.788 0 00-3.788-3.02 5.119 5.119 0 00-4.811 3.02v-2.662h-2V52.14h2.1zm-47.6 44.017a2.97 2.97 0 00-3.173 3.225v2.764a3.2 3.2 0 006.4-.051v-2.765a2.943 2.943 0 00-3.224-3.173zm1.843 5.988c0 1.126-.461 2.047-1.791 2.047-1.331 0-1.843-.819-1.843-2.047v-2.815c0-1.177.461-2.1 1.791-2.1s1.843.87 1.843 2zm33.422-.256a2.252 2.252 0 01-2.1 2.3c-.972 0-1.382-.461-1.382-1.587v-6.24h-1.378v6.654a2.2 2.2 0 002.1 2.3h.208a2.815 2.815 0 002.61-1.689h.051v1.484h1.228v-8.749h-1.335zm53.537-4.043v-1.484h-1.331v8.752h1.381v-5.477a2.047 2.047 0 011.936-2.153 2.077 2.077 0 01.265 0h.768V86.33h-.614a2.434 2.434 0 00-2.402 1.587zm7.524-.409h4.043l-4.146 6.807v.87h5.732V94.11h-4.043l4.043-6.756v-.921h-5.63zm10.134-1.28a2.97 2.97 0 00-3.173 3.225v2.764a3.2 3.2 0 006.4-.051v-2.765a2.943 2.943 0 00-3.224-3.173zm1.843 5.988c0 1.126-.461 2.047-1.791 2.047-1.331 0-1.843-.819-1.843-2.047v-2.815c0-1.177.461-2.1 1.791-2.1s1.843.87 1.843 2zM95.317 66.625c0-3.634-2.3-5.477-5.528-5.477s-5.477 2-5.477 5.579v5.016c0 3.634 2.2 5.528 5.528 5.528 3.122 0 5.477-1.843 5.477-5.63zm-2.15 5.067c0 2.15-.819 3.839-3.327 3.839-2.457 0-3.429-1.484-3.429-3.839v-5.016c0-2.1.921-3.89 3.378-3.89s3.378 1.689 3.378 3.736zm56.966 13.359h1.382v-1.945h-1.382zm5.272-10.9c0 2.457 1.791 3.02 3.429 3.02a8.752 8.752 0 002.559-.461v-1.793a5.888 5.888 0 01-1.843.358c-1.382 0-2-.563-2-1.791V63.247h3.941v-1.689h-3.941v-4.453h-2.15v4.453h-2.508v1.689h2.508zm27.023 14.483c0-1.689-1.331-2.406-2.917-2.406s-3.071.768-3.071 2.3v.512h1.28v-.461c0-.921.768-1.331 1.689-1.331s1.638.409 1.638 1.382v1.441h-1.587c-1.433 0-3.276.717-3.276 2.815a2.3 2.3 0 002.142 2.454 2.384 2.384 0 00.264 0 2.662 2.662 0 002.508-1.535h.051c.051.512.051 1.126.1 1.382h1.28c-.051-.409-.1-1.535-.1-2.2zm-1.38 3.637a2 2 0 01-1.943 2.047 1.443 1.443 0 01-1.484-1.638 1.857 1.857 0 012.047-1.689h1.382zm9.319-31.117h-.208a5.016 5.016 0 00-4.811 2.969h-.051v-2.61h-2v15.4h2.1v-9.93a4.186 4.186 0 013.839-4.146c1.843 0 2.661.768 2.661 2.815v11.26h2.1V65.089a3.788 3.788 0 00-3.63-3.938zm-10.139 10.487v-5.016c0-3.634-2.252-5.477-5.528-5.477s-5.477 2-5.477 5.579v5.016c0 3.634 2.252 5.528 5.528 5.528 3.177 0 5.477-1.843 5.477-5.63zm-2.1.051c0 2.15-.819 3.839-3.327 3.839-2.457 0-3.429-1.484-3.429-3.839v-5.016c0-2.1.87-3.89 3.327-3.89s3.429 1.685 3.429 3.737zm-5.679 14.538h-.1a2.866 2.866 0 00-2.661 1.638h-.051v-1.435h-1.28v8.752h1.382v-5.63a2.2 2.2 0 012.047-2.2c.921 0 1.382.409 1.382 1.484v6.347h1.382v-6.655a2.2 2.2 0 00-2.098-2.301zm0-32.2c-.563 1.484-1.228 2.047-2.3 2.047a9.585 9.585 0 01-1.638-.2l-.154 1.791a7.822 7.822 0 001.945.2c1.689 0 3.327-.921 4.2-3.941l5.374-17.2h-1.948l-3.634 12.181h-.051l-3.685-12.181h-2.252l4.811 14.945zm-22.316 41.155h1.382v-8.752h-1.382zm-31.324-7.268v-1.484h-1.281v8.752h1.382v-5.477a2.047 2.047 0 011.936-2.153 2.077 2.077 0 01.265 0h.717V86.33h-.614a2.457 2.457 0 00-2.404 1.587zm-6.04-1.689a3.054 3.054 0 00-3.225 3.378v2.61c0 2.2 1.382 3.173 3.276 3.173a4.5 4.5 0 002.815-.87l-.461-.921a4.451 4.451 0 01-2.1.614c-1.382 0-2.15-.614-2.15-2V91.09h4.914v-1.74a2.864 2.864 0 00-3.068-3.122zm1.74 3.89h-3.581v-.921a1.791 1.791 0 011.686-1.891h.105a1.728 1.728 0 011.791 1.945zm-16.633-6.091h-1.433v2.457h-1.382v1.126h1.382v5.937c0 1.433 1.075 1.791 2 1.791a4.548 4.548 0 001.535-.307v-1.126a3.626 3.626 0 01-1.024.2c-.768 0-1.075-.307-1.075-.972V87.61h2.2v-1.126h-2.2zm21.6-22.876h-.208a5.016 5.016 0 00-4.811 2.969h-.051v-2.61h-2l-.051 15.406h2.2v-9.933a4.144 4.144 0 013.788-4.146c1.843 0 2.662.768 2.662 2.815v11.26h2.1V65.089a3.788 3.788 0 00-3.626-3.938zm-12.592 10.183a4.089 4.089 0 01-3.839 4.2c-2 0-2.661-.768-2.661-2.815V61.507h-2.1V73.33a3.775 3.775 0 003.994 3.941 4.965 4.965 0 004.658-3.02h.051l.1 2.661h1.894V61.507h-2.1zm-1.175 14.9h-.1a2.815 2.815 0 00-2.61 1.587h-.051v-4.818h-1.382v12.182h1.382v-5.579a2.252 2.252 0 012.047-2.252c.972 0 1.433.409 1.433 1.535v6.3h1.382v-6.658a2.2 2.2 0 00-2.101-2.301zm21.7 0h-.1a2.918 2.918 0 00-2.713 1.638v-1.439h-1.331v8.752h1.382v-5.63a2.252 2.252 0 012.047-2.2c.921 0 1.433.409 1.433 1.484v6.347h1.382v-6.655a2.2 2.2 0 00-2.098-2.301zm21.085-11.775h.1l.1 2.457h1.945c0-.768-.1-2.713-.1-3.89v-7.78c0-2.866-2.252-4.095-4.965-4.095s-5.323 1.331-5.323 3.941v.921h1.894v-.87c0-1.689 1.535-2.457 3.173-2.457s3.071.819 3.071 2.61v2.662h-2.961c-2.508 0-5.63 1.28-5.63 4.914s2 4.351 4.2 4.351a4.76 4.76 0 004.498-2.767zm-6.551-1.894c0-2.047 2.047-3.173 3.839-3.173h2.61v2.406a3.685 3.685 0 01-3.581 3.786h-.053a2.743 2.743 0 01-2.814-3.022zm-4.453 10.39l-3.634 12.233h1.382l1.024-3.685h4.043l1.024 3.685h1.484l-3.585-12.236zm-.921 7.37l1.74-5.835 1.638 5.835zm-1.587-16.174v2.764h1.946v-21.6h-2.15v8.394a4.351 4.351 0 00-4.043-2.559 4.514 4.514 0 00-4.606 4.811v6.81c0 2.457 1.382 4.5 4.248 4.5h.051a4.856 4.856 0 004.453-3.122zm-3.839 1.382c-2 0-2.866-1.177-2.866-3.02v-6.5c0-2.457 1.331-3.327 2.917-3.327s3.685 1.945 3.685 4.4v3.839c.002 2.814-1.841 4.606-3.734 4.606zM49.252.036A47.4 47.4 0 00.528 40.419a48.11 48.11 0 00.358 16.276l25.284-3.992-21.549-1.232 21.087-4.6-20.473-6.759 21.548.972L8.767 29.262l20.524 6.551L14.96 19.742l18.168 11.669-9.725-19.3 14.538 15.973-4.4-21.138L43.47 26.14l1.227-21.549 4.555 21.036z"/></svg>